<?xml version="1.0" encoding="UTF-8" standalone="no"?>
<svg width="14px" height="14px" viewBox="0 0 26 26" version="1.1" xmlns="http://www.w3.org/2000/svg" xmlns:xlink="http://www.w3.org/1999/xlink">
    <!-- Generator: sketchtool 3.8.2 (29753) - http://www.bohemiancoding.com/sketch -->
    <title>8071409A-19D7-4E6E-ADF3-9F998432BB00</title>
    <desc>Created with sketchtool.</desc>
    <defs></defs>
    <g id="Page-1" stroke="none" stroke-width="1" fill="none" fill-rule="evenodd" opacity="0.4">
        <g id="99a-ChatSelect" transform="translate(-1271.000000, -520.000000)" fill="#2A2A2A">
            <path d="M1297,544.13447 L1289.88486,537.019333 C1291.32161,535.177551 1292.10925,532.928097 1292.10925,530.554625 C1292.10925,527.735221 1291.01025,525.084691 1289.01675,523.092505 C1287.02456,521.097681 1284.37403,520 1281.55463,520 C1278.73522,520 1276.08469,521.097681 1274.09251,523.092505 C1272.099,525.084691 1271,527.735221 1271,530.554625 C1271,533.37403 1272.099,536.02456 1274.09251,538.016745 C1276.08469,540.011569 1278.73522,541.109251 1281.55463,541.109251 C1283.9281,541.109251 1286.17755,540.322931 1288.01933,538.884863 L1295.13447,545.998681 L1297,544.13447 L1297,544.13447 Z M1281.55463,538.470594 C1279.43974,538.470594 1277.45283,537.647333 1275.95804,536.152535 C1274.46192,534.657736 1273.63866,532.669508 1273.63866,530.554625 C1273.63866,528.441062 1274.46192,526.452834 1275.95804,524.958035 C1277.45283,523.461917 1279.43974,522.638656 1281.55463,522.638656 C1283.66951,522.638656 1285.65642,523.461917 1287.15122,524.958035 C1288.64733,526.452834 1289.47059,528.441062 1289.47059,530.554625 C1289.47059,532.669508 1288.64733,534.657736 1287.15122,536.152535 C1285.65642,537.647333 1283.66951,538.470594 1281.55463,538.470594 L1281.55463,538.470594 Z" id="Search"></path>
        </g>
    </g>
</svg>